<?xml version="1.0" encoding="utf-8"?>
<!-- Generator: Adobe Illustrator 28.1.0, SVG Export Plug-In . SVG Version: 6.00 Build 0)  -->
<svg version="1.1" id="Layer_1" xmlns="http://www.w3.org/2000/svg" xmlns:xlink="http://www.w3.org/1999/xlink" x="0px" y="0px"
	 viewBox="0 0 1846.7 443.8" style="enable-background:new 0 0 1846.7 443.8;" xml:space="preserve">
<style type="text/css">
	.st0{fill:#FFFFFF;}
</style>
<g>
	<path class="st0" d="M343.5,297.3c8.9-20.7,14.3-41.7,15.5-64c-24.8,0-49.2,0-74.2,0c0,10.1,0,20.2,0,31.7
		c-7.2-4.8-13.5-8.7-19.5-13c-1-0.7-1.2-2.9-1.2-4.5c-0.2-4.6-0.1-9.3-0.1-14.5c-7.5,0-14.5,0.1-21.5-0.1c-2-0.1-4.4-0.4-6-1.6
		c-7.1-5.3-13.9-10.8-20.8-16.4c-0.7-0.6-1.2-1.4-2.5-2.8c17.3,0,33.7,0,50.4,0c0-25.4,0-50.4,0-75.7c-1.3-0.2-2.6-0.4-3.8-0.4
		c-14.8,0-29.7,0.1-44.5-0.1c-3.3,0-5.1,1.1-6.5,4.1c-7.6,15.3-13,31.3-16.3,48.1c-0.3,1.6-0.7,3.1-1.3,5.6
		c-5.7-5.6-11-10.4-15.8-15.7c-1.1-1.2-1.2-4.1-0.6-5.9c3.1-10,6.6-19.9,10-29.8c0.6-1.9,1.4-3.6,2.5-6.2c-12.2,0-23.8-0.4-35.3,0.3
		c-2.3,0.1-4.5,4.3-7.3,7.2c-3.8-5.5-7.8-10.9-11.3-16.6c-0.6-1,0.6-3.7,1.7-5.1c22.6-30.5,51.5-52.8,88.1-63.3
		c65.1-18.5,123.4-5.2,172.1,42.1c59.2,57.5,67.6,149.9,21.2,218c-1,1.5-3.5,3.2-4.9,2.9C388.1,316.5,365.8,308,343.5,297.3z
		 M284.9,211.8c24.8,0,49.3,0,73.5,0c0.2-0.4,0.4-0.6,0.4-0.7c-1.3-25.7-8.1-49.9-20-72.6c-0.7-1.3-3.1-2.3-4.7-2.4
		c-11-0.2-22-0.1-33-0.1c-5.3,0-10.6,0-16.2,0C284.9,161.5,284.9,186.4,284.9,211.8z M424.9,211.9c-2-27.1-10.6-51.3-25.3-73.4
		c-0.7-1-1.9-2.3-2.9-2.3c-11.6-0.2-23.1-0.1-35.6-0.1c11.2,24.6,17.3,49.6,18.8,75.8C395.1,211.9,409.7,211.9,424.9,211.9z
		 M379.8,233.3c-1.2,24.6-6.9,47.8-16.3,70.6c12,0,23-0.1,33.9,0.1c3.1,0.1,5-0.9,6.2-3.7c5.5-12.8,11.7-25.3,16.2-38.5
		c3.1-8.9,3.8-18.7,5.7-28.5C409.7,233.3,395.1,233.3,379.8,233.3z M263.6,115.1c0-13.4,0-26.3,0-40.1
		c-15.5,11.6-28.3,24.5-39.5,40.1C237.7,115.1,250.5,115.1,263.6,115.1z M284.6,74.7c0,13.6-0.1,25.8,0.2,38.1
		c0,0.9,2.4,2.4,3.7,2.5c5.1,0.3,10.3,0.1,15.5,0.1c6.6,0,13.1,0,20.7,0C313.3,99.4,300.4,86.7,284.6,74.7z M322.7,79.5
		c6.3,7.8,11.9,14.5,17.4,21.4c3.7,4.7,6.1,11.4,10.9,13.7c5,2.4,12,0.7,18.2,0.7c3.3,0,6.6,0,10,0
		C363.2,98.6,344.8,87.3,322.7,79.5z M169.8,115.3c9.1,0,18.2,0.1,27.2-0.1c1,0,2.3-1.2,3.1-2.1c8.1-10.3,16.1-20.7,24.2-31.1
		c0.3-0.4,0.5-1,1-2.3C203.6,87.4,185.3,98.8,169.8,115.3z"/>
	<path class="st0" d="M465.6,244.7c2.1,3,4.2,5.8,6.2,8.8c11.2,16.9,20.9,34.4,25,54.6c4.7,23.1-2.3,42.4-20.2,53.8
		c-10.7,6.8-22.8,8.9-35.3,9.2c-21.1,0.5-41.4-3.9-61.3-10.1c-44.9-13.9-86.1-35.6-125.4-60.8c-43-27.6-82.9-59.2-118.3-96.3
		c-21.7-22.8-41.4-47-55.1-75.6c-7.3-15.2-12.5-31-10.1-48.2c2.7-19.5,14-32,32.3-38.1c17.9-6,36.2-4.8,54.3-1.4
		c11.2,2.1,22.2,5.1,33.3,7.7c0,0.5,0,0.9,0,1.4c-1.2,0.7-2.4,1.4-3.6,2.1c-6,3.5-12.8,6.2-18,10.7c-8.6,7.5-17.5,8.2-28.3,6.6
		c-8.8-1.3-18.3-0.4-27.1,1.4c-10.5,2.1-14.8,10.1-13.2,20.7c2.5,17.1,10.8,31.7,20.1,45.8c24.8,37.3,56.8,67.8,91.5,95.6
		c41.7,33.5,86.4,62.3,135.4,84.1c26.4,11.7,53.5,21.5,82.6,23.8c7.8,0.6,16-0.1,23.7-1.6c10.4-2,16-10,13.6-20.3
		c-2.4-10.3-6.8-20-10.1-30.1c-0.8-2.3-1.1-5.1-0.6-7.4C459.6,269,462.6,257.1,465.6,244.7z"/>
	<path class="st0" d="M105.4,193.8c12.2,13,24.2,25.7,36.8,39.1c-6.4,0-12,0-18.8,0c1.1,7.5,1.9,14.2,3.2,20.8
		c3.3,16.3,9.5,31.5,17.8,45.9c1.9,3.2,4,4.6,7.9,4.5c10.6-0.3,21.3-0.1,32-0.1c-4.4-14.5-8.7-28.8-13-43.1c0.6-0.3,1.1-0.5,1.7-0.8
		c8.4,6.7,17.5,12.8,24.9,20.4c3.8,3.8,4.9,10.4,6.7,15.9c1.9,5.9,5.1,8.7,11.6,7.6c10.6-1.8,19.7,1.5,28.1,8.2
		c5.5,4.4,11.9,7.7,17.7,12.5c-13.5,0-27,0-41.6,0c12,18,25.9,32.4,43.3,45.4c0-15.6,0-30,0-45.5c7.2,4.1,13.4,7.5,19.4,11.3
		c1,0.6,1.3,2.9,1.4,4.4c0.1,7.8,0.1,15.7,0.1,23.5c0,1.7,0,3.5,0,5.2c0.5,0.3,0.9,0.5,1.4,0.8c6.4-5.7,13.1-11.1,19.1-17.2
		c3-3,5.2-3.1,8.6-1.2c4.6,2.5,9.5,4.6,14.5,7.1c-1.8,2.3-3.3,4.2-4.8,6.1c0.5,0.2,0.7,0.4,0.8,0.3c8.7-5.5,16.7-1.7,24.8,1.9
		c3.4,1.6,7,2.8,10.8,4.3c-43.7,28.1-120.7,35.7-181.9-6.3C113.3,320.5,94.6,247.6,105.4,193.8z M163.7,324.8
		c14.1,17.1,49,39.4,60,39.6c-8.7-12.2-17.9-25-27.1-37.8c-0.6-0.8-1.8-1.7-2.7-1.7C184.2,324.7,174.5,324.8,163.7,324.8z"/>
</g>
<g>
	<path class="st0" d="M605,78.8v266h-69.2v-266H605z"/>
	<path class="st0" d="M787.2,78.8v266h-60.6l-36-120.9v120.9h-57.8v-266h57.8l38.8,119.8V78.8H787.2z"/>
	<path class="st0" d="M954.3,78.8v53.2h-41.1v212.8h-69.2V132.1h-40.9V78.8H954.3z"/>
	<path class="st0" d="M970.1,78.8h49c32.6,0,54.7,1.3,66.3,3.8c11.6,2.5,21,9,28.3,19.3c7.3,10.4,10.9,26.9,10.9,49.5
		c0,20.7-2.6,34.6-7.7,41.7c-5.2,7.1-15.3,11.4-30.4,12.8c13.7,3.4,22.9,7.9,27.6,13.6c4.7,5.7,7.6,10.9,8.8,15.7
		c1.2,4.8,1.7,17.9,1.7,39.4v70.2h-64.3v-88.4c0-14.2-1.1-23.1-3.4-26.5c-2.2-3.4-8.1-5.1-17.7-5.1v120h-69.2V78.8z M1039.3,124.3
		v59.2c7.8,0,13.2-1.1,16.4-3.2c3.1-2.1,4.7-9.1,4.7-20.8v-14.6c0-8.4-1.5-14-4.5-16.6C1052.8,125.7,1047.3,124.3,1039.3,124.3z"/>
	<path class="st0" d="M1270.9,78.8l39.6,266h-70.7l-3.7-47.8h-24.7l-4.2,47.8h-71.5l35.3-266H1270.9z M1234.3,249.9
		c-3.5-30.1-7-67.4-10.5-111.7c-7,50.9-11.5,88.2-13.3,111.7H1234.3z"/>
	<path class="st0" d="M1476.7,78.8v266h-60.6l-36-120.9v120.9h-57.8v-266h57.8l38.8,119.8V78.8H1476.7z"/>
	<path class="st0" d="M1504.5,78.8h115.4v53.2h-46.2v50.4h43.2v50.6h-43.2v58.5h50.8v53.2h-120V78.8z"/>
	<path class="st0" d="M1779.2,78.8v53.2h-41.1v212.8H1669V132.1h-40.9V78.8H1779.2z"/>
</g>
</svg>
